<?xml version="1.0" standalone="no"?>
<!DOCTYPE svg PUBLIC "-//W3C//DTD SVG 20010904//EN"
 "http://www.w3.org/TR/2001/REC-SVG-20010904/DTD/svg10.dtd">
<svg version="1.0" xmlns="http://www.w3.org/2000/svg"
 width="541.000000pt" height="541.000000pt" viewBox="0 0 541.000000 541.000000"
 preserveAspectRatio="xMidYMid meet">
<metadata>
Created by potrace 1.14, written by Peter Selinger 2001-2017
</metadata>
<g transform="translate(0.000000,541.000000) scale(0.100000,-0.100000)"
fill="#000000" stroke="none">
<path d="M6 5113 c1 -164 2 -300 3 -303 0 -3 1073 -5 2384 -4 1310 0 2387 -1
2393 -3 8 -3 11 -679 12 -2381 0 -1307 1 -2384 1 -2393 1 -14 35 -16 301 -16
267 0 300 2 301 16 1 21 1 5364 0 5374 -1 4 -1215 7 -2699 7 l-2697 0 1 -297z"/>
<path d="M4077 4594 c-1 -1 -36 -5 -77 -9 -41 -3 -95 -8 -120 -10 -25 -2 -79
-7 -120 -10 -41 -3 -93 -8 -115 -10 -22 -2 -71 -7 -110 -10 -38 -3 -94 -8
-124 -11 -88 -8 -152 -14 -221 -19 -36 -3 -87 -7 -115 -10 -146 -14 -260 -23
-345 -30 -36 -2 -89 -7 -117 -10 -96 -9 -157 -15 -228 -20 -38 -3 -88 -7 -110
-10 -22 -3 -74 -7 -115 -10 -69 -5 -97 -8 -220 -20 -25 -2 -79 -7 -120 -10
-41 -3 -95 -8 -120 -10 -25 -3 -76 -7 -115 -10 -38 -4 -88 -8 -110 -10 -22 -2
-74 -6 -115 -10 -78 -6 -130 -11 -215 -19 -27 -3 -86 -8 -130 -11 -44 -3 -96
-8 -115 -10 -19 -3 -69 -7 -110 -10 -41 -4 -93 -8 -115 -10 -22 -2 -76 -6
-120 -10 -44 -3 -96 -8 -115 -10 -19 -2 -66 -7 -105 -10 -38 -3 -90 -8 -115
-10 -25 -3 -81 -7 -125 -11 -44 -3 -82 -10 -85 -14 -4 -7 -5 -576 -1 -603 0
-5 4 -6 9 -4 4 3 50 8 102 12 52 3 106 8 120 10 14 2 59 6 100 10 41 3 95 8
120 10 25 2 79 7 120 10 41 3 93 8 115 10 22 3 74 7 115 10 41 3 91 7 110 10
19 2 71 7 115 10 132 10 157 13 223 19 58 6 101 9 240 21 127 10 188 16 212
20 14 2 68 7 120 10 52 4 109 8 125 10 17 2 71 7 120 10 50 3 101 8 115 10 14
2 59 6 100 10 41 3 95 8 120 10 60 6 149 13 235 20 39 3 86 8 105 10 19 3 76
7 125 11 50 3 98 8 108 10 10 2 60 6 110 9 51 3 108 8 127 10 19 3 60 7 90 9
30 3 93 8 140 12 47 3 89 7 94 8 11 1 14 -17 21 -132 4 -51 8 -101 10 -111 2
-10 6 -58 10 -107 3 -49 8 -105 10 -124 3 -19 7 -62 9 -95 9 -106 18 -209 21
-240 2 -16 6 -68 10 -115 3 -47 8 -96 10 -110 2 -14 6 -61 10 -105 3 -44 8
-100 10 -125 6 -61 13 -139 20 -235 3 -44 8 -96 10 -115 2 -19 7 -69 10 -110
3 -41 8 -93 10 -115 3 -22 7 -70 10 -105 3 -36 7 -90 10 -120 3 -30 7 -84 10
-120 12 -128 15 -166 20 -210 2 -25 7 -83 10 -130 4 -47 8 -96 10 -110 2 -14
6 -61 10 -105 3 -44 8 -102 10 -130 3 -27 7 -77 10 -110 3 -33 7 -82 10 -110
6 -61 15 -167 20 -243 3 -31 7 -77 9 -102 3 -25 8 -76 11 -115 3 -38 8 -88 10
-110 2 -22 7 -76 11 -120 3 -44 7 -91 9 -105 2 -14 4 -28 4 -31 1 -3 139 -6
307 -6 l305 0 -5 51 c-6 51 -10 102 -21 226 -3 36 -8 88 -10 115 -2 28 -7 79
-10 115 -3 36 -7 85 -10 110 -2 25 -7 79 -11 120 -3 41 -7 91 -9 110 -2 19 -6
69 -10 110 -3 41 -8 95 -10 120 -18 202 -21 225 -30 340 -3 41 -8 98 -10 125
-3 28 -7 75 -10 105 -2 30 -6 82 -10 115 -3 33 -8 87 -11 120 -2 33 -7 80 -9
105 -3 25 -7 77 -10 115 -3 39 -7 93 -10 120 -5 51 -10 107 -20 230 -4 39 -8
88 -10 110 -2 22 -6 76 -10 120 -3 44 -8 94 -10 110 -2 17 -7 67 -10 110 -7
90 -13 159 -20 225 -2 25 -7 81 -10 125 -3 44 -8 96 -10 115 -2 19 -6 69 -10
110 -3 41 -8 95 -10 120 -3 25 -7 74 -10 110 -3 36 -7 85 -10 110 -7 74 -17
182 -21 235 -6 86 -15 188 -19 225 -5 43 -23 259 -24 291 -1 13 -24 22 -34 13z"/>
<path d="M2927 3674 c-1 -2 -70 -14 -152 -28 -83 -14 -161 -28 -175 -31 -28
-6 -26 -5 -220 -39 -80 -14 -167 -30 -195 -35 -27 -5 -70 -12 -95 -16 -25 -3
-76 -12 -115 -20 -38 -7 -86 -16 -105 -19 -19 -3 -44 -8 -55 -10 -11 -2 -63
-11 -115 -20 -52 -9 -106 -18 -120 -21 -14 -3 -41 -8 -60 -11 -19 -3 -84 -15
-144 -26 -60 -10 -121 -21 -135 -23 -14 -2 -38 -7 -54 -9 -33 -7 -129 -23
-177 -31 -19 -3 -46 -8 -60 -10 -63 -13 -155 -30 -220 -40 -19 -3 -73 -13
-120 -21 -47 -9 -92 -17 -100 -19 -8 -1 -35 -6 -60 -10 -25 -4 -54 -9 -65 -11
-11 -2 -99 -18 -195 -35 -96 -17 -177 -32 -180 -34 -7 -4 -6 -602 1 -610 4 -3
67 5 140 19 74 13 150 27 169 30 51 8 760 133 855 150 44 9 96 18 115 21 35 6
127 22 165 29 11 2 40 7 65 12 25 4 47 8 50 9 3 0 26 4 51 8 25 4 57 10 70 12
185 33 490 87 509 90 32 5 79 14 105 20 27 6 116 18 139 19 10 1 20 -6 21 -15
4 -25 44 -250 50 -279 3 -14 7 -38 10 -55 3 -16 16 -93 30 -170 28 -162 30
-170 50 -290 9 -49 18 -103 21 -120 2 -16 11 -64 19 -105 8 -41 17 -90 20
-107 12 -77 16 -99 20 -113 2 -8 6 -33 10 -55 3 -22 14 -89 25 -150 11 -60 22
-126 25 -145 3 -19 12 -66 20 -105 7 -38 16 -86 19 -105 10 -64 38 -227 51
-290 2 -14 7 -41 10 -60 6 -38 22 -131 30 -168 4 -24 42 -240 51 -297 2 -16
11 -66 20 -110 8 -44 17 -97 20 -118 3 -20 9 -50 13 -65 l7 -27 302 -1 c167
-1 305 2 307 6 3 5 -2 43 -9 87 -8 43 -17 94 -20 113 -3 19 -13 73 -21 120 -9
47 -18 94 -19 105 -15 90 -37 213 -71 400 -3 17 -16 95 -30 175 -32 181 -31
177 -60 340 -14 74 -27 153 -30 175 -4 22 -8 47 -10 55 -3 8 -7 33 -10 55 -4
22 -8 47 -10 55 -2 8 -7 35 -10 60 -3 25 -8 52 -10 60 -4 13 -28 144 -41 225
-4 27 -25 147 -39 220 -3 17 -8 46 -11 65 -5 33 -32 182 -40 225 -2 11 -20
110 -39 220 -19 110 -37 211 -39 225 -20 108 -48 269 -51 285 -1 11 -14 85
-29 165 -36 200 -34 193 -35 211 -1 13 -24 22 -34 13z"/>
<path d="M1850 2644 c-47 -13 -94 -26 -105 -28 -11 -3 -20 -5 -20 -6 0 -1 -7
-3 -15 -5 -18 -4 -35 -8 -640 -170 -597 -160 -647 -174 -856 -229 -93 -25
-179 -49 -190 -53 -19 -8 -19 -19 -19 -320 0 -172 2 -313 5 -313 3 0 107 27
230 61 301 81 522 140 540 145 8 2 40 10 70 19 30 8 67 17 83 20 15 3 46 11
70 19 23 7 89 26 147 41 58 15 168 45 245 66 77 20 141 37 142 36 2 -3 53
-177 58 -199 6 -26 74 -283 96 -358 10 -36 30 -108 43 -160 14 -52 32 -122 41
-155 9 -33 18 -67 20 -75 2 -8 11 -40 19 -70 46 -173 66 -245 147 -548 49
-184 91 -337 94 -341 7 -13 625 -9 625 3 -1 13 -9 49 -43 171 -13 50 -39 144
-56 210 -18 66 -39 145 -47 175 -8 30 -26 96 -39 145 -13 50 -31 115 -39 145
-14 53 -29 108 -76 285 -12 44 -27 103 -35 130 -20 72 -54 202 -70 260 -78
294 -248 927 -256 953 -6 18 -12 39 -13 45 -1 7 -8 38 -16 70 -16 67 -14 67
-140 31z"/>
<path d="M800 1498 c-195 -71 -447 -163 -560 -205 -113 -41 -212 -77 -220 -80
-13 -4 -15 -47 -15 -329 0 -178 1 -324 2 -324 2 0 386 140 553 202 74 27 142
51 150 53 8 2 32 11 54 20 21 9 39 15 40 13 2 -2 67 -181 145 -398 79 -217
147 -404 153 -416 9 -20 15 -21 329 -21 240 0 319 3 319 12 0 6 -43 131 -97
276 -53 145 -183 502 -289 794 -105 291 -196 530 -201 531 -4 1 -168 -56 -363
-128z"/>
<path d="M490 519 c-8 -5 -118 -57 -245 -116 -126 -58 -232 -108 -235 -110 -2
-2 -5 -65 -5 -139 0 -112 2 -135 15 -138 25 -7 740 -4 740 3 1 17 -236 511
-245 510 -5 0 -17 -4 -25 -10z"/>
</g>
</svg>
