<?xml version="1.0" encoding="utf-8"?>
<svg version="1.1" xmlns="http://www.w3.org/2000/svg" xmlns:xlink="http://www.w3.org/1999/xlink" x="0px" y="0px"
	 viewBox="180 240 2600 600" style="enable-background:new 0 0 2673 1080;" xml:space="preserve">
<style type="text/css">
	.st0{display:none;}
	.st1{display:inline;fill:#FFFFFF;}
	.st2{fill:#143CAA;}
	.st3{fill:#00BEBE;}
	.st4{fill:#0FA0B9;}
	.st5{fill:#0A8FBE;}
	.st6{fill:#1164B4;}
	.st7{fill:#171775;}
	.st8{fill:#00005F;}
</style>
<g id="Background" class="st0">
	<rect x="-11.3" y="-10.5" class="st1" width="2695.6" height="1101"/>
</g>
<g id="Contenu">
	<g>
		<g>
			<g>
				<g>
					<g>
						<polygon class="st2" points="269.7,690.4 269.7,754.9 349.6,725.9 380.1,809.7 444.7,809.7 385.9,648.1 						"/>
					</g>
					<g>
						<polygon class="st3" points="269.7,330.4 749,330.4 749,809.7 809.1,809.7 809.1,270.3 269.7,270.3 						"/>
					</g>
					<g>
						<polygon class="st4" points="269.7,387.5 269.7,448.4 624.6,417.4 658.9,809.7 719.9,809.7 679.8,351.6 						"/>
					</g>
					<g>
						<polygon class="st5" points="269.7,495.5 269.7,557.1 515.4,513.8 567.5,809.7 629.2,809.7 564.6,443.5 						"/>
					</g>
					<g>
						<polygon class="st6" points="269.7,596.3 269.7,659.1 423.2,617.9 474.6,809.7 537.5,809.7 466.2,543.6 						"/>
					</g>
					<g>
						<polygon class="st7" points="269.7,782 269.7,809.7 345.5,809.7 321.3,758 						"/>
					</g>
				</g>
			</g>
		</g>
		<g>
			<g>
				<g>
					<g>
						<g>
							<path class="st5" d="M1513.3,529.8c-9.9,0-18.9-1.5-27-4.4c-8.1-2.9-14.5-7.2-19.3-12.9c-4.8-5.7-7.3-12.4-7.5-20.2h17.4
								c0.2,4.4,2,8.3,5.4,11.6c3.4,3.3,8,5.9,13.6,7.7c5.6,1.8,11.7,2.7,18.3,2.7c6.3,0,11.7-0.9,16.4-2.7
								c4.6-1.8,8.2-4.4,10.7-7.8c2.5-3.4,3.7-7.3,3.7-11.8c0-4-0.9-7.2-2.7-9.6c-1.8-2.4-5.2-4.6-10.3-6.6
								c-5.1-2-13.2-4.5-24.2-7.6c-11.5-3.1-20.5-6.2-26.8-9.3c-6.4-3.1-10.9-6.7-13.6-10.7c-2.7-4-4.1-9-4.1-15c0-7,2-13.3,6-18.7
								c4-5.4,9.6-9.6,16.8-12.6c7.2-3,15.5-4.5,24.9-4.5c9.6,0,18.2,1.5,25.9,4.4c7.6,2.9,13.8,7.2,18.4,12.8
								c4.6,5.6,7.1,12.3,7.4,20h-17.4c-0.2-4.6-1.9-8.5-4.9-11.7c-3-3.2-7.1-5.7-12.2-7.3c-5.1-1.7-10.9-2.5-17.3-2.6
								c-5.9-0.2-11.1,0.6-15.6,2.1c-4.5,1.6-8.1,3.9-10.6,6.9c-2.6,3-3.8,6.5-3.8,10.4c0,3.4,1,6.3,3.1,8.6
								c2.1,2.3,5.6,4.5,10.8,6.6c5.1,2.1,12.7,4.4,22.9,6.9c11.7,2.9,20.8,6,27.3,9.3c6.5,3.3,11.2,7.1,13.9,11.4
								c2.8,4.4,4.2,9.9,4.2,16.4c0,7.8-2,14.6-5.9,20.3c-4,5.7-9.6,10.1-17.1,13.2C1532.3,528.2,1523.5,529.8,1513.3,529.8z"/>
							<path class="st5" d="M1640.5,529.9c-12.3,0-22.9-2.8-31.7-8.4c-8.8-5.6-15.6-13.4-20.2-23.4c-4.6-10-7-21.5-7.1-34.5
								c0.2-13.2,2.6-24.9,7.2-34.8c4.6-10,11.4-17.7,20.3-23.2c8.9-5.5,19.4-8.3,31.7-8.3c8.4,0,16.1,1.4,23.2,4.2
								c7.1,2.8,13.2,6.8,18.2,12c5,5.2,8.7,11.4,11,18.5l-16.7,5.3c-2.9-7.4-7.6-13.2-13.9-17.4c-6.4-4.2-13.7-6.3-22-6.3
								c-13.4,0-23.5,4.5-30.4,13.5c-6.9,9-10.4,21.1-10.5,36.4c0.1,10.2,1.7,19,4.8,26.4c3.1,7.5,7.7,13.2,13.8,17.3
								c6.1,4.1,13.6,6.1,22.3,6.1c8.4,0,15.7-1.9,21.7-5.8c6-3.9,10.6-9.6,13.8-17.2l17.2,5.1c-4.6,11.2-11.5,19.7-20.5,25.5
								C1663.7,527,1653,529.9,1640.5,529.9z"/>
							<path class="st5" d="M1719.5,377.1v-19.2h17.1v19.2H1719.5z M1719.5,526.4V400.9h17.1v125.5H1719.5z"/>
							<path class="st5" d="M1824.5,529.9c-12.1,0-22.7-2.7-31.7-8.1c-9.1-5.4-16.1-13-21-23c-4.9-9.9-7.4-21.5-7.4-34.6
								c0-13.6,2.4-25.5,7.3-35.5c4.9-10,11.8-17.8,20.7-23.2c8.9-5.4,19.4-8.1,31.4-8.1c12.3,0,22.9,2.8,31.7,8.5
								c8.8,5.7,15.4,13.8,19.9,24.5c4.5,10.7,6.5,23.4,6.2,38h-17.4v-6c-0.2-10.8-1.9-19.9-4.9-27.2c-3-7.3-7.5-12.8-13.4-16.5
								c-5.9-3.7-13.1-5.6-21.6-5.6c-8.9,0-16.5,2-22.7,5.9c-6.2,3.9-11,9.6-14.2,17.2c-3.2,7.6-4.8,16.7-4.8,27.5
								c0,10.5,1.6,19.5,4.8,27c3.2,7.4,7.9,13.1,14.1,17c6.2,3.9,13.6,5.9,22.3,5.9c6.2,0,11.8-0.7,16.9-2.2
								c5-1.5,9.5-3.8,13.4-7.1c3.9-3.3,7-7.5,9.5-12.7h16.3c-2.3,8.1-6.2,15.1-11.6,20.9c-5.4,5.8-11.9,10.1-19.4,13.1
								C1841.3,528.4,1833.2,529.9,1824.5,529.9z M1776.5,468.4v-14.3h95.9v14.3H1776.5z"/>
							<path class="st5" d="M1907.1,526.4l0.1-66.9h17.1v33l0.1,5.6l-0.1,28.4H1907.1z M1997.9,462.4c0-10.1-1.1-18.6-3.4-25.6
								c-2.3-7-6-12.6-11.3-16.6c-5.2-4.1-12.1-6.1-20.6-6.1c-8.1,0-14.9,1.8-20.6,5.4c-5.7,3.6-10.1,8.8-13.1,15.6
								c-3,6.8-4.5,15-4.5,24.4h-17.1c0-14.4,2.6-26.2,7.7-35.5c5.2-9.3,11.9-16,20.3-20.2c8.4-4.2,17.6-6.2,27.7-6
								c10.3,0.1,19.4,2.5,27.3,7.3c7.9,4.8,14,11.6,18.3,20.5c4.3,8.9,6.5,19.5,6.5,31.8v69h-17.2V462.4z"/>
							<path class="st5" d="M2097.4,529.9c-12.3,0-22.9-2.8-31.7-8.4c-8.8-5.6-15.6-13.4-20.2-23.4c-4.6-10-7-21.5-7.1-34.5
								c0.2-13.2,2.6-24.9,7.2-34.8c4.6-10,11.4-17.7,20.3-23.2c8.9-5.5,19.4-8.3,31.7-8.3c8.4,0,16.1,1.4,23.2,4.2
								c7.1,2.8,13.2,6.8,18.2,12c5,5.2,8.7,11.4,11,18.5l-16.7,5.3c-2.9-7.4-7.6-13.2-13.9-17.4c-6.4-4.2-13.7-6.3-22-6.3
								c-13.4,0-23.5,4.5-30.4,13.5c-6.9,9-10.4,21.1-10.5,36.4c0.1,10.2,1.7,19,4.8,26.4c3.1,7.5,7.7,13.2,13.8,17.3
								c6.1,4.1,13.6,6.1,22.3,6.1c8.4,0,15.7-1.9,21.7-5.8c6-3.9,10.6-9.6,13.8-17.2l17.2,5.1c-4.6,11.2-11.5,19.7-20.5,25.5
								C2120.6,527,2109.9,529.9,2097.4,529.9z"/>
							<path class="st5" d="M2227.1,529.9c-12.1,0-22.7-2.7-31.7-8.1c-9.1-5.4-16.1-13-21-23c-4.9-9.9-7.4-21.5-7.4-34.6
								c0-13.6,2.4-25.5,7.3-35.5c4.9-10,11.8-17.8,20.7-23.2c8.9-5.4,19.4-8.1,31.4-8.1c12.3,0,22.9,2.8,31.7,8.5
								c8.8,5.7,15.4,13.8,19.9,24.5c4.5,10.7,6.5,23.4,6.2,38h-17.4v-6c-0.2-10.8-1.9-19.9-4.9-27.2c-3-7.3-7.5-12.8-13.4-16.5
								c-5.9-3.7-13.1-5.6-21.6-5.6c-8.9,0-16.5,2-22.7,5.9c-6.2,3.9-11,9.6-14.2,17.2c-3.2,7.6-4.8,16.7-4.8,27.5
								c0,10.5,1.6,19.5,4.8,27c3.2,7.4,7.9,13.1,14.1,17c6.2,3.9,13.6,5.9,22.3,5.9c6.2,0,11.8-0.7,16.9-2.2
								c5-1.5,9.5-3.8,13.4-7.1c3.9-3.3,7-7.5,9.5-12.7h16.3c-2.3,8.1-6.2,15.1-11.6,20.9c-5.4,5.8-11.9,10.1-19.4,13.1
								C2243.9,528.4,2235.8,529.9,2227.1,529.9z M2179.1,468.4v-14.3h95.9v14.3H2179.1z"/>
							<path class="st5" d="M2356.7,529.8c-9.9,0-18.9-1.5-27-4.4c-8.1-2.9-14.5-7.2-19.3-12.9c-4.8-5.7-7.3-12.4-7.5-20.2h17.4
								c0.2,4.4,2,8.3,5.4,11.6c3.4,3.3,8,5.9,13.6,7.7c5.6,1.8,11.7,2.7,18.3,2.7c6.3,0,11.7-0.9,16.4-2.7
								c4.6-1.8,8.2-4.4,10.7-7.8c2.5-3.4,3.7-7.3,3.7-11.8c0-4-0.9-7.2-2.7-9.6c-1.8-2.4-5.2-4.6-10.3-6.6
								c-5.1-2-13.2-4.5-24.2-7.6c-11.5-3.1-20.5-6.2-26.8-9.3c-6.4-3.1-10.9-6.7-13.6-10.7c-2.7-4-4.1-9-4.1-15c0-7,2-13.3,6-18.7
								c4-5.4,9.6-9.6,16.8-12.6c7.2-3,15.5-4.5,24.9-4.5c9.6,0,18.2,1.5,25.9,4.4c7.6,2.9,13.8,7.2,18.4,12.8
								c4.6,5.6,7.1,12.3,7.4,20h-17.4c-0.2-4.6-1.9-8.5-4.9-11.7c-3-3.2-7.1-5.7-12.2-7.3c-5.1-1.7-10.9-2.5-17.3-2.6
								c-5.9-0.2-11.1,0.6-15.6,2.1c-4.5,1.6-8.1,3.9-10.6,6.9c-2.6,3-3.8,6.5-3.8,10.4c0,3.4,1,6.3,3.1,8.6
								c2.1,2.3,5.6,4.5,10.8,6.6c5.1,2.1,12.7,4.4,22.9,6.9c11.7,2.9,20.8,6,27.3,9.3c6.5,3.3,11.2,7.1,13.9,11.4
								c2.8,4.4,4.2,9.9,4.2,16.4c0,7.8-2,14.6-5.9,20.3c-4,5.7-9.6,10.1-17.1,13.2C2375.7,528.2,2366.9,529.8,2356.7,529.8z"/>
						</g>
					</g>
				</g>
				<g>
					<path class="st8" d="M1118.8,410.9H1016v26h99.5v36.1H1016v27.7h104V536H972.4V376.1h146.4V410.9z"/>
					<path class="st8" d="M1365.6,536V376.1h44.3V536H1365.6z"/>
					<path class="st8" d="M1266.2,376.1h-64.1h-44.3v35.7v37.4v49.1V536h44.3v-37.8v-13.4h64.1c49.9,0,66.2-23,66.2-53.3v-2.4
						C1332.4,398.3,1316.7,376.1,1266.2,376.1z M1286.4,430.9c0,11.4-7.1,18.3-23.4,18.3h-54.6h-6.2v-37.4h6.2h54.6
						c16.3,0,23.4,7.1,23.4,18.3V430.9z"/>
				</g>
			</g>
			<g>
				<g>
					<g>
						<path class="st5" d="M1005.6,676.8c-5.9,0-11-1.3-15.3-4c-4.3-2.7-7.7-6.4-10-11.2c-2.3-4.8-3.5-10.2-3.5-16.4
							c0-6.2,1.2-11.7,3.5-16.4c2.4-4.8,5.7-8.5,10.1-11.1c4.4-2.6,9.4-4,15.2-4c5.9,0,11,1.3,15.4,4c4.3,2.7,7.7,6.4,10,11.1
							c2.3,4.8,3.5,10.2,3.5,16.4c0,6.2-1.2,11.7-3.5,16.5c-2.3,4.8-5.7,8.5-10,11.1C1016.5,675.5,1011.4,676.8,1005.6,676.8z
							 M1005.6,667.4c4,0,7.4-0.9,10.2-2.8c2.7-1.8,4.8-4.4,6.2-7.8c1.4-3.4,2-7.2,2-11.7c0-6.9-1.6-12.3-4.7-16.2
							c-3.1-3.9-7.7-5.9-13.7-5.9c-4.1,0-7.5,0.9-10.2,2.8c-2.7,1.8-4.8,4.4-6.1,7.7c-1.3,3.3-2,7.2-2,11.6c0,4.5,0.7,8.5,2.1,11.8
							c1.4,3.3,3.5,5.9,6.2,7.7C998.3,666.5,1001.6,667.4,1005.6,667.4z"/>
						<path class="st5" d="M1064.9,675.1l-21.7-59.7h10l16.8,47.2l16.7-47.2h10l-21.7,59.7H1064.9z"/>
						<path class="st5" d="M1134.8,676.8c-5.8,0-10.9-1.3-15.4-3.9c-4.4-2.6-7.8-6.2-10.2-11c-2.4-4.7-3.6-10.2-3.6-16.3
							c0-6.5,1.2-12.1,3.6-16.9c2.4-4.8,5.7-8.5,10.1-11.1c4.3-2.6,9.4-3.9,15.1-3.9c5.9,0,11,1.4,15.3,4.1
							c4.3,2.8,7.4,6.7,9.6,11.9c2.1,5.2,3,11.2,2.7,18.3h-10v-3.5c-0.1-4.9-0.8-9-2.1-12.2c-1.3-3.2-3.2-5.7-5.8-7.3
							c-2.5-1.6-5.7-2.4-9.5-2.4c-4,0-7.4,0.9-10.2,2.6c-2.8,1.8-4.9,4.3-6.3,7.7c-1.4,3.4-2.1,7.5-2.1,12.4c0,4.7,0.7,8.7,2.1,12
							c1.4,3.3,3.5,5.8,6.3,7.6c2.7,1.8,6.1,2.6,9.9,2.6c2.8,0,5.2-0.3,7.4-0.9c2.2-0.6,4.1-1.6,5.8-3c1.7-1.4,3.1-3.3,4.2-5.6h9.5
							c-1,4-2.8,7.5-5.4,10.3c-2.5,2.8-5.6,5-9.2,6.4C1142.9,676.1,1139,676.8,1134.8,676.8z M1112.7,648v-7.9h44.1v7.9H1112.7z"/>
						<path class="st5" d="M1176.4,675.1v-39.4l8.8-9.4v3.5l-8.8,5.9c0-2.6,0.7-5.3,2.2-7.9s3.6-5.3,6.5-7.9c1.8-1.6,4-2.8,6.8-3.6
							c2.7-0.8,5.5-1.3,8.3-1.4c2.8-0.1,5.1,0,7.1,0.4v9.2c-2.4-0.6-4.8-0.8-7.3-0.5c-2.5,0.3-4.8,1.1-6.8,2.4c-1.7,1.1-3,2.4-4,3.8
							c-1,1.5-1.7,3-2.1,4.6c-0.4,1.6-0.7,3.4-0.7,5.4v0.6v34.2H1176.4z"/>
						<path class="st5" d="M1221.1,675.1v-81.3h9.8v81.3H1221.1z"/>
						<path class="st5" d="M1250.4,625.8c2-3.8,4.9-6.8,8.7-8.9c3.9-2.1,8.6-3.2,14.1-3.2c5.5,0,10.2,1,14.1,3
							c3.9,2,6.6,4.9,8.3,8.7c0.8,1.7,1.3,3.6,1.5,5.6c0.3,2,0.4,4.4,0.4,7.2v37h-8.7v-12.5l2.4,1.3c-2.2,4.7-5.3,8-9.3,10
							s-9.1,2.9-15.2,2.9c-4.3,0-8-0.8-11-2.4c-3-1.6-5.3-3.8-6.9-6.4c-1.6-2.7-2.4-5.7-2.4-9c0-4.6,1.3-8.4,3.8-11.2
							c2.5-2.9,6.1-5,10.9-6.3c2.5-0.7,5.4-1.2,8.6-1.5c3.2-0.3,7.3-0.5,12.2-0.6c3.3-0.1,6.5-0.1,9.6-0.2l-3.5,0.6
							c0.4-5.8-0.6-10-3-12.7c-2.4-2.7-6.3-4.1-11.7-4.1c-3.1,0-5.8,0.6-8.1,1.7c-2.3,1.1-4.2,2.8-5.6,5.1L1250.4,625.8z
							 M1268.2,668.5c3.5,0,6.7-0.5,9.4-1.5c2.7-1,4.9-2.5,6.6-4.4c1.6-1.9,2.6-4.1,2.8-6.5c0.3-1.9,0.5-4,0.6-6.3
							c0.1-2.3,0.1-4.4,0.1-6.4l3.4,3.9c-2.1,0-3.6,0-4.6,0c-5.1,0-9.2,0.1-12.4,0.3c-3.2,0.2-6.1,0.7-8.7,1.4
							c-2.8,0.9-5.1,2.1-6.7,3.7s-2.5,3.6-2.5,6.2c0,1.7,0.4,3.3,1.3,4.8c0.8,1.5,2.2,2.6,4,3.5
							C1263.2,668.1,1265.5,668.5,1268.2,668.5z"/>
						<path class="st5" d="M1310.8,645.2v-29.8h9.3v29.8c0,4.3,0.7,8.1,2.2,11.5c1.5,3.4,3.6,6.1,6.4,8.1c2.8,2,6.1,3,10,3
							c3.9,0,7.2-0.9,9.8-2.8c2.6-1.9,4.5-4.5,5.8-7.9c1.3-3.4,1.9-7.3,1.9-11.8h7.1c0,6-1,11.5-3,16.2c-2,4.8-4.9,8.5-8.8,11.3
							c-3.9,2.7-8.6,4.1-14,4.1c-5.4,0-10.2-1.4-14.2-4.1c-4.1-2.7-7.2-6.5-9.3-11.3C1311.9,656.6,1310.8,651.2,1310.8,645.2z
							 M1338.3,703.3h-21.2v-9.5h21.2c3.8,0,6.9-0.7,9.4-2.1c2.5-1.4,4.3-3.4,5.6-6.1s1.8-6.1,1.8-10.3v-16.3h1.2v-43.7h8.7v60.1
							c0,3.6-0.2,6.7-0.7,9.2c-1.1,6.3-3.9,10.9-8.4,14C1351.5,701.8,1345.6,703.3,1338.3,703.3z"/>
						<path class="st5" d="M1398.2,701.7v-9.4h3.2c2.9,0,5.1-0.7,6.6-2.2c1.5-1.5,2.2-3.7,2.2-6.8v-67.9h9.8v71.3
							c0,3.3-0.6,6-1.7,8.3s-2.8,3.9-5,5.1c-2.2,1.1-5,1.7-8.3,1.7H1398.2z M1410.3,604.8v-10.2h9.8v10.2H1410.3z"/>
						<path class="st5" d="M1463.8,676.8c-5.9,0-11-1.3-15.3-4c-4.3-2.7-7.7-6.4-10-11.2c-2.3-4.8-3.5-10.2-3.5-16.4
							c0-6.2,1.2-11.7,3.5-16.4c2.4-4.8,5.7-8.5,10.1-11.1c4.4-2.6,9.4-4,15.2-4c5.9,0,11,1.3,15.4,4c4.3,2.7,7.7,6.4,10,11.1
							c2.3,4.8,3.5,10.2,3.5,16.4c0,6.2-1.2,11.7-3.5,16.5c-2.3,4.8-5.7,8.5-10,11.1C1474.8,675.5,1469.7,676.8,1463.8,676.8z
							 M1463.8,667.4c4,0,7.4-0.9,10.2-2.8c2.7-1.8,4.8-4.4,6.2-7.8c1.4-3.4,2-7.2,2-11.7c0-6.9-1.6-12.3-4.7-16.2
							c-3.1-3.9-7.7-5.9-13.7-5.9c-4.1,0-7.5,0.9-10.2,2.8c-2.7,1.8-4.8,4.4-6.1,7.7c-1.3,3.3-2,7.2-2,11.6c0,4.5,0.7,8.5,2.1,11.8
							c1.4,3.3,3.5,5.9,6.2,7.7C1456.6,666.5,1459.9,667.4,1463.8,667.4z"/>
						<path class="st5" d="M1532.3,677.3c-5.9,0-10.8-1.2-14.7-3.6s-6.9-5.8-8.8-10.1c-1.9-4.3-2.8-9.4-2.8-15.2v-33h10v31.3
							c0,5.1,0.8,9.2,2.3,12.3c1.5,3.2,3.5,5.4,5.9,6.8c2.5,1.4,5.2,2.1,8.1,2.1c3,0,5.7-0.6,8.1-1.9c2.4-1.3,4.4-3.5,5.9-6.5
							c1.5-3.1,2.3-7.1,2.3-12.1l9.8-0.1c0,7.5-1.1,13.4-3.3,17.9s-5.2,7.6-9.1,9.4C1542.2,676.4,1537.6,677.3,1532.3,677.3z
							 M1548.5,647.3v-16.4v-2.6v-12.9h9.9l-0.1,31.9L1548.5,647.3z"/>
						<path class="st5" d="M1576.1,675.1v-39.4l8.8-9.4v3.5l-8.8,5.9c0-2.6,0.7-5.3,2.2-7.9s3.6-5.3,6.5-7.9c1.8-1.6,4-2.8,6.8-3.6
							c2.7-0.8,5.5-1.3,8.3-1.4c2.8-0.1,5.1,0,7.1,0.4v9.2c-2.4-0.6-4.8-0.8-7.3-0.5c-2.5,0.3-4.8,1.1-6.8,2.4c-1.7,1.1-3,2.4-4,3.8
							c-1,1.5-1.7,3-2.1,4.6c-0.4,1.6-0.7,3.4-0.7,5.4v0.6v34.2H1576.1z"/>
						<path class="st5" d="M1619.6,675.1l0.1-31.5h9.9v16.8l0.1,2l-0.1,12.7H1619.6z M1662.2,645.2c0-4.3-0.5-8.1-1.4-11.2
							c-0.9-3.2-2.6-5.8-4.9-7.8c-2.3-2-5.5-3-9.5-3c-3.4,0-6.3,0.8-8.9,2.3c-2.5,1.5-4.5,3.8-5.9,6.9c-1.4,3.1-2.1,6.8-2.1,11.3
							h-9.9c0-6.9,1.3-12.6,3.8-17.1c2.5-4.5,5.8-7.8,10-9.8s8.6-3,13.5-2.9c4.8,0.1,9.2,1.3,13,3.5c3.8,2.2,6.8,5.5,9,9.7
							s3.3,9.2,3.3,15.1v33h-10V645.2z"/>
						<path class="st5" d="M1689.5,625.8c2-3.8,4.9-6.8,8.7-8.9c3.9-2.1,8.6-3.2,14.1-3.2c5.5,0,10.2,1,14.1,3
							c3.9,2,6.6,4.9,8.3,8.7c0.8,1.7,1.3,3.6,1.5,5.6c0.3,2,0.4,4.4,0.4,7.2v37h-8.7v-12.5l2.4,1.3c-2.2,4.7-5.3,8-9.3,10
							s-9.1,2.9-15.2,2.9c-4.3,0-8-0.8-11-2.4c-3-1.6-5.3-3.8-6.9-6.4c-1.6-2.7-2.4-5.7-2.4-9c0-4.6,1.3-8.4,3.8-11.2
							c2.5-2.9,6.1-5,10.9-6.3c2.5-0.7,5.4-1.2,8.6-1.5c3.2-0.3,7.3-0.5,12.2-0.6c3.3-0.1,6.5-0.1,9.6-0.2l-3.5,0.6
							c0.4-5.8-0.6-10-3-12.7c-2.4-2.7-6.3-4.1-11.7-4.1c-3.1,0-5.8,0.6-8.1,1.7c-2.3,1.1-4.2,2.8-5.6,5.1L1689.5,625.8z
							 M1707.2,668.5c3.5,0,6.7-0.5,9.4-1.5c2.7-1,4.9-2.5,6.6-4.4c1.6-1.9,2.6-4.1,2.8-6.5c0.3-1.9,0.5-4,0.6-6.3
							c0.1-2.3,0.1-4.4,0.1-6.4l3.4,3.9c-2.1,0-3.6,0-4.6,0c-5.1,0-9.2,0.1-12.4,0.3c-3.2,0.2-6.1,0.7-8.7,1.4
							c-2.8,0.9-5.1,2.1-6.7,3.7s-2.5,3.6-2.5,6.2c0,1.7,0.4,3.3,1.3,4.8c0.8,1.5,2.2,2.6,4,3.5
							C1702.3,668.1,1704.6,668.5,1707.2,668.5z"/>
						<path class="st5" d="M1754.3,675.1v-81.3h9.8v81.3H1754.3z"/>
						<path class="st5" d="M1805.6,676.7c-4.8,0-9.1-0.7-13-2.2c-3.9-1.4-7-3.6-9.2-6.4c-2.3-2.8-3.5-6.2-3.7-10.1h10.1
							c0.1,2,0.9,3.7,2.4,5.1c1.5,1.5,3.5,2.6,6,3.4c2.5,0.8,5.1,1.2,8,1.2c2.7,0,5-0.4,7-1.2s3.5-1.9,4.5-3.3
							c1.1-1.4,1.6-3.1,1.6-5c0-1.7-0.4-3.1-1.2-4.1c-0.8-1-2.3-2-4.6-2.8c-2.3-0.9-6-2-11.1-3.4c-5.4-1.4-9.6-2.8-12.5-4.3
							c-3-1.5-5.1-3.2-6.4-5.2c-1.3-2-1.9-4.4-1.9-7.3c0-3.5,1-6.5,2.9-9.2c1.9-2.6,4.6-4.7,8.1-6.1c3.5-1.5,7.5-2.2,12-2.2
							c4.6,0,8.7,0.7,12.4,2.1c3.6,1.4,6.5,3.5,8.7,6.2c2.2,2.7,3.4,6,3.6,9.8h-10.1c-0.1-2-0.9-3.7-2.1-5s-3-2.4-5.1-3.1
							c-2.1-0.7-4.6-1.1-7.4-1.2c-2.5-0.1-4.8,0.2-6.8,0.9c-2,0.7-3.5,1.6-4.6,2.9s-1.7,2.7-1.7,4.4c0,1.5,0.5,2.8,1.4,3.8
							c0.9,1,2.6,1.9,4.9,2.8c2.4,0.9,6,2,10.8,3.2c5.3,1.4,9.5,2.8,12.5,4.4s5.1,3.4,6.4,5.5c1.3,2.1,2,4.7,2,7.9
							c0,3.8-1,7.1-2.8,9.9c-1.9,2.8-4.6,4.9-8.2,6.4S1810.5,676.7,1805.6,676.7z"/>
					</g>
				</g>
			</g>
		</g>
	</g>
</g>
</svg>
